<svg width="136" height="46" viewBox="0 0 136 46" fill="none" xmlns="http://www.w3.org/2000/svg">
<path d="M23.5483 11.1398L23.5467 11.1197L2.77012 11.1182L27.4437 7.4039L4.0893 7.43173L30.912 3.66645L30.9 3.65253L5.36001 3.74376L34.9984 0.04187L34.9877 0.0325928L6.7428 0.0449624L4.97682 3.74376L4.96471 3.74222L3.25175 7.54616H3.26689L1.58725 11.2944L1.61451 11.2929L0 14.9545L23.5483 11.1398Z" fill="#141439"/>
<path d="M41.4698 9.472C35.0193 16.0454 26.0274 27.0614 18.4091 43.3318C26.5287 24.796 35.0784 12.3899 40.0142 6.17062L39.987 6.15051C33.5199 12.3327 22.8756 24.4202 14.0927 43.3828C23.7479 21.1885 34.2318 7.67672 38.5224 2.78262H38.4846C32.6415 7.82053 19.3997 20.9349 9.04922 43.6596C21.8094 14.0228 36.0522 0.640974 36.5005 0.316248L36.5187 0.263672L36.0385 0.602315C31.4767 4.24853 15.6012 18.2814 3.93457 45.1749L8.35404 45.2137L8.3813 45.2152L13.2384 45.2616H13.2946L17.5004 45.3002H17.5595L23.4966 45.3575C28.2856 27.7278 36.5323 16.5032 41.4531 9.50139L41.4698 9.472Z" fill="#141439"/>
<path d="M54.721 25.5136C54.5364 25.9647 54.2516 26.3636 53.8629 26.7125C53.4741 27.0574 52.9753 27.3381 52.3666 27.5526C51.7577 27.7651 51.0352 27.8734 50.2006 27.8734C49.8549 27.8734 49.5093 27.8493 49.1716 27.7992C48.8299 27.7491 48.502 27.6869 48.1858 27.6066C47.8696 27.5285 47.579 27.4322 47.3158 27.324C47.0547 27.2137 46.8289 27.1055 46.6364 26.9952C46.5756 26.9592 46.5599 26.915 46.5815 26.8668L47.1038 25.1126C47.1254 25.0384 47.1725 25.0204 47.2452 25.0565C47.6281 25.3011 48.0896 25.5055 48.6355 25.67C49.1775 25.8343 49.7528 25.9166 50.3616 25.9166C51.0901 25.9166 51.6557 25.7642 52.0543 25.4595C52.4548 25.1547 52.6512 24.7578 52.6512 24.2705C52.6512 23.8195 52.4765 23.4446 52.1152 23.1458C51.7577 22.8471 51.1785 22.5684 50.3793 22.3138C49.8412 22.1414 49.3542 21.9469 48.9202 21.7183C48.4842 21.4959 48.1093 21.2332 47.8009 20.9344C47.4906 20.6357 47.2491 20.2989 47.0763 19.928C46.9016 19.5571 46.8151 19.1341 46.8151 18.6569C46.8151 18.1456 46.9212 17.6726 47.1274 17.2394C47.3375 16.8063 47.6359 16.4315 48.0248 16.1147C48.4116 15.798 48.879 15.5514 49.4209 15.3749C49.9649 15.2005 50.5756 15.1102 51.257 15.1102C51.9836 15.1102 52.61 15.1744 53.1284 15.3027C53.6469 15.429 54.0808 15.5854 54.4264 15.7699C54.4854 15.7939 54.5049 15.834 54.4795 15.8962L53.9433 17.5783C53.9316 17.6143 53.9061 17.6404 53.8707 17.6525C53.8353 17.6644 53.8059 17.6585 53.7803 17.6344C53.5781 17.5221 53.254 17.3958 52.8045 17.2475C52.3586 17.1031 51.8285 17.031 51.2217 17.031C50.8388 17.031 50.5167 17.0731 50.2556 17.1593C49.9905 17.2415 49.7784 17.3557 49.6193 17.496C49.4583 17.6364 49.3384 17.7948 49.2599 17.9712C49.1834 18.1497 49.1441 18.3221 49.1441 18.4925C49.1441 18.9436 49.3346 19.3065 49.7175 19.5811C50.0985 19.8538 50.7131 20.1264 51.5614 20.3952C52.7082 20.7721 53.5682 21.2452 54.1417 21.8106C54.7131 22.3799 54.9979 23.1499 54.9979 24.1242C54.9979 24.5993 54.9075 25.0645 54.721 25.5136Z" fill="#141439"/>
<path d="M62.0022 17.2825V27.5394C62.0022 27.6115 61.9668 27.6476 61.8941 27.6476H59.7988C59.7282 27.6476 59.6928 27.6115 59.6928 27.5394V17.2825H55.9147C55.842 17.2825 55.8066 17.2443 55.8066 17.1722V15.4159C55.8066 15.3558 55.842 15.3256 55.9147 15.3256H65.8C65.8706 15.3256 65.9079 15.3558 65.9079 15.4159V17.1722C65.9079 17.2443 65.8706 17.2825 65.8 17.2825H62.0022Z" fill="#141439"/>
<path d="M69.2918 23.2822C69.4705 23.8195 69.7238 24.2886 70.0538 24.6896C70.3797 25.0926 70.7843 25.4094 71.2614 25.64C71.7406 25.8745 72.2766 25.9888 72.8736 25.9888C73.4843 25.9888 74.0303 25.8745 74.5113 25.64C74.9964 25.4094 75.4048 25.0926 75.7406 24.6896C76.0745 24.2886 76.3297 23.8094 76.5104 23.2541C76.6891 22.7007 76.7794 22.1013 76.7794 21.4538C76.7794 20.8803 76.695 20.325 76.528 19.7897C76.3612 19.2543 76.1117 18.7792 75.7838 18.3642C75.4558 17.9492 75.0494 17.6184 74.5663 17.3678C74.0813 17.1172 73.5275 16.9928 72.909 16.9928C72.2766 16.9928 71.7189 17.1152 71.2339 17.3578C70.7528 17.6044 70.3443 17.9291 70.0164 18.3461C69.6865 18.7612 69.4391 19.2444 69.2742 19.7998C69.1053 20.3531 69.0228 20.9424 69.0228 21.5639C69.0228 22.1735 69.1131 22.7469 69.2918 23.2822ZM78.7293 24.0681C78.4073 24.8741 77.9576 25.5558 77.3862 26.1171C76.8128 26.6784 76.1373 27.1116 75.3537 27.4162C74.5722 27.719 73.7278 27.8713 72.8206 27.8713C71.8897 27.8713 71.0414 27.713 70.2777 27.3962C69.5117 27.0794 68.8598 26.6444 68.3158 26.089C67.7719 25.5336 67.3517 24.876 67.0552 24.1142C66.7547 23.3544 66.6055 22.5263 66.6055 21.6362C66.6055 20.6738 66.7645 19.7937 67.0787 18.9957C67.3949 18.1978 67.8367 17.5081 68.3964 16.9287C68.96 16.3513 69.6296 15.9022 70.4111 15.5854C71.1947 15.2687 72.043 15.1102 72.964 15.1102C73.9183 15.1102 74.7803 15.2687 75.5521 15.5854C76.3219 15.9022 76.9758 16.3393 77.5217 16.8926C78.0637 17.4479 78.4819 18.1076 78.7726 18.8774C79.0671 19.6433 79.2144 20.4733 79.2144 21.3635C79.2144 22.362 79.0514 23.2621 78.7293 24.0681Z" fill="#141439"/>
<path d="M89.7154 15.3188C90.2829 15.4591 90.6914 15.5955 90.9426 15.7318C91.0016 15.7559 91.0193 15.798 90.9957 15.8581L90.5127 17.5221C90.4891 17.6084 90.4381 17.6264 90.3693 17.5783C90.0453 17.4319 89.6564 17.3056 89.195 17.2033C88.7375 17.0992 88.2328 17.049 87.681 17.049C86.9662 17.049 86.3161 17.1513 85.7389 17.3578C85.1596 17.5662 84.6627 17.861 84.2523 18.244C83.8419 18.6289 83.5258 19.1021 83.3039 19.6614C83.082 20.2227 82.9739 20.8502 82.9739 21.544C82.9739 22.1655 83.0741 22.7428 83.2784 23.2742C83.4786 23.8034 83.7752 24.2646 84.1639 24.6535C84.5508 25.0444 85.0359 25.3472 85.6132 25.5677C86.1925 25.7863 86.8582 25.8965 87.6122 25.8965C88.1228 25.8965 88.6294 25.8505 89.1243 25.7583C89.6171 25.668 90.0394 25.5437 90.3889 25.3853C90.4576 25.3472 90.5068 25.3713 90.5303 25.4595L90.925 27.1034C90.9466 27.1276 90.9309 27.1597 90.8681 27.1958C90.5715 27.3541 90.1101 27.5065 89.4817 27.6508C88.8553 27.7992 88.1169 27.8714 87.2706 27.8714C86.2436 27.8714 85.3186 27.7251 84.4958 27.4323C83.6711 27.1416 82.9661 26.7206 82.381 26.1712C81.7958 25.6219 81.3461 24.9643 81.0299 24.1945C80.7138 23.4286 80.5527 22.5684 80.5527 21.6181C80.5527 20.6818 80.7216 19.8158 81.0574 19.0218C81.3892 18.2299 81.8645 17.5442 82.4791 16.9648C83.0957 16.3854 83.8341 15.9323 84.7001 15.6035C85.568 15.2727 86.5303 15.1102 87.5926 15.1102C88.4409 15.1102 89.1479 15.1784 89.7154 15.3188Z" fill="#141439"/>
<path d="M100.416 27.833C100.391 27.833 100.361 27.8151 100.324 27.7769L96.3494 22.0189C96.1608 22.2255 95.9723 22.4259 95.7838 22.6224C95.5992 22.8169 95.4185 23.0173 95.2419 23.2239V27.5404C95.2419 27.6126 95.2045 27.6486 95.1318 27.6486H93.0542C92.9836 27.6486 92.9482 27.6126 92.9482 27.5404V15.4169C92.9482 15.3567 92.9836 15.3266 93.0542 15.3266H95.1318C95.2045 15.3266 95.2419 15.3567 95.2419 15.4169L95.2929 20.7198C95.3872 20.5614 95.4735 20.4431 95.5443 20.3629C95.6169 20.2848 95.6935 20.1945 95.776 20.0983L96.045 19.7674L99.8604 15.2705C99.884 15.2444 99.9135 15.2344 99.9488 15.2344L102.458 15.3266C102.506 15.3266 102.537 15.3446 102.555 15.3808C102.574 15.4169 102.564 15.4549 102.529 15.491L98.0166 20.5734C98.8275 21.7182 99.6425 22.8649 100.459 24.0118C101.276 25.1566 102.091 26.3074 102.904 27.4662C102.93 27.5043 102.932 27.5444 102.914 27.5845C102.896 27.6286 102.863 27.6486 102.816 27.6486L100.416 27.833Z" fill="#141439"/>
<path d="M55.2851 45.3124C55.2125 45.3124 55.1771 45.2763 55.1771 45.2021V39.8812H49.447V45.2021C49.447 45.2763 49.4117 45.3124 49.339 45.3124H47.2438C47.1711 45.3124 47.1377 45.2763 47.1377 45.2021V33.0806C47.1377 33.0184 47.1711 32.9884 47.2438 32.9884H49.339C49.4117 32.9884 49.447 33.0184 49.447 33.0806V37.8542H55.1771V33.0806C55.1771 33.0184 55.2125 32.9884 55.2851 32.9884H57.3804C57.4531 32.9884 57.4884 33.0184 57.4884 33.0806V45.2021C57.4884 45.2763 57.4531 45.3124 57.3804 45.3124H55.2851Z" fill="#141439"/>
<path d="M62.201 40.9409C62.3816 41.4782 62.633 41.9473 62.9609 42.3503C63.2908 42.7513 63.6933 43.0681 64.1705 43.2986C64.6477 43.5311 65.1857 43.6475 65.7828 43.6475C66.3896 43.6475 66.9374 43.5311 67.4204 43.2986C67.9054 43.0681 68.312 42.7513 68.6478 42.3503C68.9816 41.9473 69.2408 41.4682 69.4195 40.9148C69.5963 40.3595 69.6866 39.758 69.6866 39.1124C69.6866 38.541 69.6041 37.9856 69.4352 37.4483C69.2683 36.911 69.0209 36.4379 68.693 36.0229C68.365 35.6099 67.9585 35.2751 67.4754 35.0264C66.9905 34.7758 66.4386 34.6516 65.8181 34.6516C65.1857 34.6516 64.6281 34.7738 64.145 35.0184C63.6619 35.2591 63.2535 35.5898 62.9256 36.0049C62.5976 36.4199 62.3501 36.903 62.1833 37.4584C62.0143 38.0117 61.9319 38.5991 61.9319 39.2227C61.9319 39.8322 62.0203 40.4055 62.201 40.9409ZM71.6385 41.7268C71.3184 42.5307 70.8687 43.2144 70.2953 43.7757C69.7219 44.3372 69.0444 44.7682 68.2649 45.0729C67.4813 45.3777 66.6349 45.5301 65.7278 45.5301C64.797 45.5301 63.9486 45.3716 63.1867 45.0549C62.4209 44.7381 61.7689 44.3031 61.225 43.7498C60.681 43.1924 60.2608 42.5348 59.9623 41.7729C59.6619 41.011 59.5146 40.1851 59.5146 39.2948C59.5146 38.3325 59.6716 37.4524 59.9898 36.6524C60.3059 35.8565 60.7438 35.1668 61.3035 34.5873C61.8651 34.0079 62.5387 33.5589 63.3202 33.2441C64.1018 32.9273 64.9521 32.7669 65.8711 32.7669C66.8275 32.7669 67.6895 32.9273 68.4592 33.2441C69.2309 33.5589 69.8868 33.996 70.4308 34.5513C70.9728 35.1047 71.391 35.7662 71.6836 36.5341C71.9762 37.3019 72.1236 38.132 72.1236 39.0202C72.1236 40.0206 71.9625 40.9228 71.6385 41.7268Z" fill="#141439"/>
<path d="M91.3991 35.8196C90.5685 35.0999 89.353 34.7429 87.7545 34.7429C87.3363 34.7429 86.9847 34.7549 86.698 34.7791C86.4113 34.8031 86.1658 34.8391 85.9636 34.8892V43.4982C86.1541 43.5243 86.374 43.5383 86.6253 43.5444C86.8767 43.5524 87.1437 43.5564 87.4304 43.5564C88.2808 43.5564 89.0289 43.4481 89.6789 43.2336C90.3289 43.0231 90.8729 42.7143 91.3088 42.3134C91.7448 41.9104 92.0766 41.4212 92.3024 40.8477C92.5303 40.2744 92.6441 39.6369 92.6441 38.9291C92.6441 37.5779 92.2278 36.5413 91.3991 35.8196ZM94.5587 41.5255C94.2131 42.3294 93.7281 43.0191 93.1095 43.5925C92.4635 44.2 91.623 44.6611 90.5823 44.9719C89.5454 45.2846 88.3692 45.4369 87.0554 45.4369C86.3387 45.4369 85.7161 45.427 85.184 45.4028C84.6538 45.3769 84.1727 45.3348 83.7427 45.2746C83.6818 45.2746 83.6543 45.2385 83.6543 45.1643V33.2433C83.6543 33.1691 83.6818 33.131 83.7427 33.131C84.3023 33.0608 84.9111 32.9986 85.5708 32.9506C86.2248 32.9025 86.912 32.8764 87.6288 32.8764C90.0893 32.8764 91.9273 33.3956 93.1449 34.4322C93.7418 34.9414 94.2131 35.567 94.5587 36.3068C94.9063 37.0425 95.0771 37.8866 95.0771 38.839C95.0771 39.8253 94.9063 40.7215 94.5587 41.5255Z" fill="#141439"/>
<path d="M97.1217 45.3124C97.049 45.3124 97.0137 45.2763 97.0137 45.2021V33.0806C97.0137 33.0184 97.049 32.9884 97.1217 32.9884H99.2169C99.2877 32.9884 99.3249 33.0184 99.3249 33.0806V45.2021C99.3249 45.2763 99.2877 45.3124 99.2169 45.3124H97.1217Z" fill="#141439"/>
<path d="M110.051 45.3124C110.027 45.3124 109.997 45.2923 109.962 45.2582L106.292 39.6446C105.874 38.997 105.467 38.3455 105.073 37.6878C104.68 37.0302 104.326 36.3766 104.016 35.733C104.053 36.4748 104.077 37.2147 104.089 37.9524C104.099 38.6903 104.106 39.4862 104.106 40.3382V45.2021C104.106 45.2763 104.071 45.3124 103.996 45.3124H102.048C101.974 45.3124 101.938 45.2763 101.938 45.2021V33.0806C101.938 33.0184 101.974 32.9884 102.048 32.9884H104.536C104.572 33.0124 104.595 33.0305 104.607 33.0426L108.295 38.5118C108.713 39.1334 109.086 39.7348 109.416 40.3203C109.746 40.9077 110.051 41.4851 110.337 42.0585C110.278 41.3628 110.243 40.6771 110.231 39.9995C110.219 39.3238 110.212 38.5901 110.212 37.7981V33.0806C110.212 33.0184 110.249 32.9884 110.322 32.9884H112.273C112.344 32.9884 112.38 33.0184 112.38 33.0806V45.2021C112.38 45.2763 112.344 45.3124 112.273 45.3124H110.051Z" fill="#141439"/>
<path d="M125.665 44.8373C125.545 44.8613 125.439 44.8734 125.345 44.8734C125.26 44.8855 125.181 44.8914 125.109 44.8914C125.041 44.8914 124.955 44.9095 124.86 44.9455C124.406 45.0798 123.88 45.1962 123.283 45.2924C122.688 45.3926 122.047 45.4388 121.368 45.4388C119.159 45.4388 117.421 44.8493 116.157 43.6645C115.597 43.1292 115.159 42.4796 114.849 41.7096C114.538 40.9418 114.386 40.1178 114.386 39.2417C114.386 38.3515 114.546 37.5195 114.876 36.7456C115.205 35.9717 115.682 35.296 116.31 34.7166C116.936 34.1353 117.7 33.6841 118.601 33.3553C119.501 33.0246 120.525 32.8582 121.675 32.8582C122.497 32.8582 123.22 32.9343 123.847 33.0807C124.475 33.2271 124.942 33.3653 125.254 33.5017C125.325 33.5257 125.348 33.5658 125.325 33.628L124.825 35.3101C124.812 35.3822 124.769 35.4083 124.699 35.3822C124.316 35.2259 123.885 35.0875 123.399 34.9713C122.915 34.855 122.322 34.7989 121.618 34.7989C120.877 34.7989 120.212 34.9031 119.62 35.1096C119.032 35.3161 118.527 35.6108 118.108 35.9877C117.69 36.3646 117.369 36.8177 117.14 37.347C116.914 37.8783 116.801 38.4657 116.801 39.1154C116.801 39.759 116.906 40.3524 117.124 40.8877C117.339 41.4229 117.649 41.8862 118.056 42.2771C118.46 42.668 118.951 42.9707 119.534 43.1913C120.11 43.4098 120.764 43.5181 121.495 43.5181C121.959 43.5181 122.362 43.4901 122.702 43.4299C123.044 43.3677 123.306 43.3016 123.499 43.2254V40.3584H121.134C121.064 40.3584 121.026 40.3203 121.026 40.2462V38.584C121.026 38.5099 121.064 38.4738 121.134 38.4738H125.649C125.72 38.4738 125.755 38.5099 125.755 38.584V44.7471L125.665 44.8373Z" fill="#141439"/>
<path d="M135.722 43.1722C135.536 43.6233 135.251 44.0242 134.863 44.3692C134.475 44.718 133.977 44.9987 133.368 45.2111C132.76 45.4237 132.036 45.5299 131.2 45.5299C130.855 45.5299 130.511 45.5059 130.171 45.4578C129.832 45.4097 129.502 45.3434 129.185 45.2674C128.867 45.1871 128.579 45.0909 128.317 44.9826C128.055 44.8724 127.827 44.7621 127.638 44.6518C127.576 44.6177 127.558 44.5736 127.581 44.5255L128.102 42.7692C128.125 42.697 128.174 42.677 128.247 42.7151C128.626 42.9576 129.09 43.1642 129.633 43.3286C130.177 43.493 130.755 43.5752 131.363 43.5752C132.09 43.5752 132.653 43.4208 133.054 43.118C133.455 42.8134 133.653 42.4164 133.653 41.9292C133.653 41.478 133.475 41.1032 133.117 40.8045C132.76 40.5057 132.181 40.229 131.379 39.9744C130.843 39.802 130.356 39.6036 129.923 39.379C129.486 39.1504 129.111 38.8918 128.799 38.5911C128.49 38.2943 128.249 37.9575 128.074 37.5867C127.903 37.2137 127.817 36.7907 127.817 36.3135C127.817 35.8023 127.921 35.3332 128.129 34.9001C128.337 34.467 128.638 34.0901 129.025 33.7753C129.414 33.4566 129.877 33.212 130.421 33.0335C130.964 32.855 131.575 32.7669 132.257 32.7669C132.985 32.7669 133.61 32.833 134.128 32.9614C134.649 33.0877 135.081 33.244 135.426 33.4265C135.485 33.4506 135.504 33.4946 135.482 33.5548L134.943 35.2369C134.932 35.273 134.908 35.2991 134.871 35.311C134.838 35.3211 134.806 35.3171 134.78 35.2911C134.58 35.1828 134.256 35.0545 133.806 34.9081C133.359 34.7618 132.83 34.6875 132.222 34.6875C131.839 34.6875 131.516 34.7296 131.254 34.8138C130.993 34.9021 130.78 35.0144 130.621 35.1547C130.458 35.295 130.336 35.4534 130.262 35.6298C130.181 35.8062 130.144 35.9807 130.144 36.1511C130.144 36.6002 130.335 36.9652 130.715 37.2378C131.1 37.5124 131.715 37.7831 132.561 38.0517C133.708 38.4307 134.568 38.9018 135.142 39.4691C135.715 40.0366 136 40.8084 136 41.7828C136 42.256 135.908 42.7212 135.722 43.1722Z" fill="#141439"/>
<path d="M82.0132 43.3196H76.4363V33.0806C76.4363 33.0165 76.4008 32.9884 76.3302 32.9884H74.2349C74.1623 32.9884 74.127 33.0165 74.127 33.0806V45.2001C74.127 45.2763 74.1623 45.3124 74.2349 45.3124H82.0132V43.3196Z" fill="#141439"/>
</svg>
